<?xml version="1.0" encoding="UTF-8" standalone="no"?>
<svg
   viewBox="0 0 32 32"
   fill="#ffffff"
   version="1.1"
   id="svg17"
   sodipodi:docname="configLoaded.svg"
   width="32"
   height="32"
   inkscape:version="1.2.1 (9c6d41e4, 2022-07-14)"
   xml:space="preserve"
   xmlns:inkscape="http://www.inkscape.org/namespaces/inkscape"
   xmlns:sodipodi="http://sodipodi.sourceforge.net/DTD/sodipodi-0.dtd"
   xmlns="http://www.w3.org/2000/svg"
   xmlns:svg="http://www.w3.org/2000/svg"><defs
     id="defs21"><linearGradient
       id="linearGradient11654"
       x1="48"
       x2="48"
       y1="24"
       y2="78"
       gradientUnits="userSpaceOnUse"
       gradientTransform="matrix(0.34705386,0,0,0.34705001,-1.2687639,-0.66190014)"><stop
         offset="0"
         stop-color="#fff"
         stop-opacity="0"
         id="stop6-4" /><stop
         offset="1"
         stop-color="#ffd75e"
         stop-opacity=".3"
         id="stop8-0" /></linearGradient></defs><sodipodi:namedview
     id="namedview19"
     pagecolor="#ffffff"
     bordercolor="#000000"
     borderopacity="0.25"
     inkscape:showpageshadow="2"
     inkscape:pageopacity="0.0"
     inkscape:pagecheckerboard="0"
     inkscape:deskcolor="#d1d1d1"
     showgrid="false"
     inkscape:zoom="12.593226"
     inkscape:cx="15.365404"
     inkscape:cy="17.072671"
     inkscape:window-width="1280"
     inkscape:window-height="430"
     inkscape:window-x="0"
     inkscape:window-y="880"
     inkscape:window-maximized="0"
     inkscape:current-layer="svg17" /><linearGradient
     id="a"
     x1="48"
     x2="48"
     y1="24"
     y2="78"
     gradientUnits="userSpaceOnUse"
     gradientTransform="matrix(0.34705386,0,0,0.34705001,-1.2687639,-0.66190014)"><stop
       offset="0"
       stop-color="#fff"
       stop-opacity="0"
       id="stop6" /><stop
       offset="1"
       stop-color="#ffd75e"
       stop-opacity=".3"
       id="stop8" /></linearGradient><g
     inkscape:groupmode="layer"
     id="layer1"
     inkscape:label="folder"><path
       id="path2"
       style="stroke-width:0.347052;fill:#e99523;fill-opacity:1"
       d="M 1.8554688 5.5859375 C 1.2804357 5.5859375 0.81445312 6.0519265 0.81445312 6.6269531 L 0.81445312 26.060547 C 0.81445312 26.252223 0.96847859 26.408203 1.1601562 26.408203 L 29.619141 26.408203 C 29.810818 26.408203 29.966797 26.252223 29.966797 26.060547 L 29.966797 8.7089844 C 29.966797 8.1339578 29.500814 7.6679687 28.925781 7.6679688 L 14.349609 7.6679688 L 12.876953 6.1953125 C 12.486416 5.8047773 11.956563 5.5859375 11.404297 5.5859375 L 1.8554688 5.5859375 z M 14.621094 10.609375 L 26.330078 10.609375 C 26.755005 10.609375 27.099609 10.953984 27.099609 11.378906 L 27.099609 24.201172 C 27.099609 24.342813 26.985393 24.458984 26.84375 24.458984 L 3.9355469 24.458984 C 3.7939044 24.458984 3.6796875 24.342813 3.6796875 24.201172 L 3.6796875 12.148438 L 12.443359 12.148438 C 12.851463 12.148437 13.244611 11.985856 13.533203 11.697266 L 14.621094 10.609375 z " /><path
       id="path4"
       style="display:inline;stroke-width:0.347052;fill:#e99523;fill-opacity:1"
       d="M 14.349609 7.6679688 L 12.876953 9.140625 C 12.486416 9.5311604 11.956563 9.75 11.404297 9.75 L 0.81445312 9.75 L 0.81445312 26.060547 C 0.81445312 26.252223 0.96847859 26.408203 1.1601562 26.408203 L 29.619141 26.408203 C 29.810818 26.408203 29.966797 26.252223 29.966797 26.060547 L 29.966797 8.7089844 C 29.966797 8.1339578 29.500814 7.6679687 28.925781 7.6679688 L 14.349609 7.6679688 z M 14.621094 10.609375 L 26.330078 10.609375 C 26.755005 10.609375 27.099609 10.953984 27.099609 11.378906 L 27.099609 24.201172 C 27.099609 24.342813 26.985393 24.458984 26.84375 24.458984 L 3.9355469 24.458984 C 3.7939044 24.458984 3.6796875 24.342813 3.6796875 24.201172 L 3.6796875 12.148438 L 12.443359 12.148438 C 12.851463 12.148437 13.244611 11.985856 13.533203 11.697266 L 14.621094 10.609375 z " /><path
       opacity="0.4"
       d="M 0.81355932,9.7496001 V 10.096649 H 11.43358 c 0.644306,0 1.262236,-0.2559483 1.717813,-0.7115558 L 14.86924,7.6672998 H 14.34866 L 12.876248,9.1396944 C 12.48571,9.5302302 11.956071,9.7496001 11.403804,9.7496001 Z"
       id="path13"
       style="stroke-width:0.347052" /><path
       fill="#da7b16"
       d="M 29.61903,26.408 H 1.1606132 c -0.19167785,0 -0.34705388,-0.155375 -0.34705388,-0.347051 v 0 H 29.966084 v 0 c 0,0.191676 -0.155376,0.347051 -0.347054,0.347051 z"
       id="path15"
       style="stroke-width:0.347052;fill:#ffda69;fill-opacity:1" /></g><g
     inkscape:groupmode="layer"
     id="layer2"
     inkscape:label="squares"><path
       id="rect496"
       style="fill:#39b4ff;stroke:#000000;stroke-width:0;stroke-linecap:square;stop-color:#000000"
       d="m 16.055914,13.760503 h 7.311851 v 6.68512 h -7.311851 z" /><path
       id="rect496-2"
       style="fill:#39b4ff;stroke:#000000;stroke-width:0;stroke-linecap:square;stop-color:#000000"
       d="m 24.472315,13.760503 h 7.311851 v 6.68512 h -7.311851 z" /><path
       id="rect496-5-1"
       style="fill:#39b4ff;stroke:#000000;stroke-width:0;stroke-linecap:square;stop-color:#000000"
       d="m 16.055914,21.604753 h 7.311851 v 6.685121 h -7.311851 z" /><path
       id="rect496-2-4-3"
       style="fill:#39b4ff;stroke:#000000;stroke-width:0;stroke-linecap:square;stop-color:#000000"
       d="m 24.472315,21.604753 h 7.311851 v 6.685121 h -7.311851 z" /></g><rect
     style="opacity:1;fill:#e99523;fill-opacity:1;stroke-width:1.73003;stroke-linecap:square;stop-color:#000000"
     id="rect15734"
     width="9.4152718"
     height="9.2668362"
     x="5.2011638"
     y="13.709424"
     rx="14.263394"
     ry="0.073033273" /></svg>
